<?xml version="1.0" encoding="UTF-8"?>
<svg id="Capa_2" data-name="Capa 2" xmlns="http://www.w3.org/2000/svg" viewBox="0 0 101.17 57.7">
  <defs>
    <style>
      .cls-1 {
        fill: #1d1d1b;
        fill-rule: evenodd;
      }
    </style>
  </defs>
  <g id="Capa_1-2" data-name="Capa 1">
    <path class="cls-1" d="M33.51,52.31c1.19-6.68,7.25-8.16,12.67-9.37,5.34-1.18,16.03-4.96,22.03-7.15,0,0,0,0,0,0,.28-.1.62-.21.98-.36l3.68-1.58c-8.55,25.81-41.14,28.45-39.36,18.46h0Z"/>
    <path class="cls-1" d="M100.25,13.31c-1.58-4.31-10.83-5.18-15.79-4.38,0,0-.72.06-.84.66h0s0,0,0,0c0,0,0,0,0,0h0c-.14.72.58,1.02,1.15,1.14,2.16.45,3.36.7,3.28.76,2.69.69,2.41,2.54,1.57,3.26-2.73,2.31-17.09,8.66-17.51,7.1C65.31-3.49,35.2-6.06,22.18,10.38c-4.03,5.08-5.71,9.89-6.31,13.93-.15,1.02-19.01,7.65-15.41,13.76,1.56,2.65,10.06,3.12,10.97,3.16,11.34.06,19.48-.83,35.23-4.32,15.76-3.5,29.55-9.56,45.85-16.3,1.11-.11,2.63.86,1.25,3.28.1-.01-.56,1.02-1.74,2.88-.27.42-.35.71-.33.91-.03.48.35.71.35.71,4.83-.5,11.59-9.4,8.21-15.07ZM15.45,28.35c-.12,2.36.03,4.84.5,7.42-1.71.31-15.54,1.44-.5-7.42ZM56.71,26.77h0c-4.83,1.36-14.09,3.85-17.79,4.27-16.5,1.87-17.61-22.06,1.61-25.94,13.86-2.8,29.7,17.86,16.19,21.67Z"/>
  </g>
</svg>